<?xml version="1.0" encoding="UTF-8" standalone="no" ?>
<!DOCTYPE svg PUBLIC "-//W3C//DTD SVG 1.1//EN" "http://www.w3.org/Graphics/SVG/1.1/DTD/svg11.dtd">
<svg xmlns="http://www.w3.org/2000/svg" xmlns:xlink="http://www.w3.org/1999/xlink" version="1.1" width="640" height="640" viewBox="0 0 640 640" xml:space="preserve">
<desc>Created with Fabric.js 4.6.0</desc>
<defs>
</defs>
<g transform="matrix(1 0 0 1 73.27 164.13)" id="E9KFmZyU56RAQOPUgxuBF"  >
<path style="stroke: rgb(0,0,0); stroke-width: 1; stroke-dasharray: none; stroke-linecap: butt; stroke-dashoffset: 0; stroke-linejoin: miter; stroke-miterlimit: 4; fill: rgb(255,255,255); fill-opacity: 0; fill-rule: nonzero; opacity: 1;" vector-effect="non-scaling-stroke"  transform=" translate(0, 0)" d="M 0 0" stroke-linecap="round" />
</g>
<g transform="matrix(1 0 0 1 345.05 188.11)" id="v5ezleX9PX4-vdfHXpdmI"  >
<path style="stroke: rgb(0,0,0); stroke-width: 1; stroke-dasharray: none; stroke-linecap: butt; stroke-dashoffset: 0; stroke-linejoin: miter; stroke-miterlimit: 4; fill: rgb(255,255,255); fill-opacity: 0; fill-rule: nonzero; opacity: 1;" vector-effect="non-scaling-stroke"  transform=" translate(0, 0)" d="M 0 0" stroke-linecap="round" />
</g>
<g transform="matrix(1 0 0 1 320 290.82)" id="mWkxjJfRyEiJpqIU6xWD9"  >
<path style="stroke: rgb(0,0,0); stroke-width: 1; stroke-dasharray: none; stroke-linecap: butt; stroke-dashoffset: 0; stroke-linejoin: miter; stroke-miterlimit: 4; fill: rgb(0,0,0); fill-rule: nonzero; opacity: 1;" vector-effect="non-scaling-stroke"  transform=" translate(0, 0)" d="M -99.2874 -108.20918 C -142.85188 -91.91582 -183.05 -67.75275 -217.87765000000002 -36.92463000000001 L -292.55621 29.178009999999986 L -215.25854000000004 74.28706 L -215.25854000000004 74.28706 C -182.12715000000003 93.62173999999999 -145.91658000000004 107.11281 -108.21095000000004 114.17008 L -79.69811000000004 119.50675 L -79.69811000000004 119.50675 C -27.124360000000046 129.34684 26.90849999999996 128.30501999999998 79.06385999999995 116.44563 L 79.64914999999995 116.31254 L 79.64914999999995 116.31254 C 133.97754999999995 103.95903 186.48139999999995 84.63533 235.85588999999993 58.82169 L 292.5562099999999 29.178009999999997 L 203.6177999999999 -49.746700000000004 L 203.6177999999999 -49.746700000000004 C 178.4317599999999 -72.09701000000001 149.33247999999992 -89.60083 117.7856099999999 -101.37656000000001 L 99.3111299999999 -108.27266000000002 L 99.3111299999999 -108.27266000000002 C 35.26600999999991 -132.17923000000002 -35.2575700000001 -132.15669000000003 -99.2873900000001 -108.20918000000002 z" stroke-linecap="round" />
</g>
<g transform="matrix(1 0 0 1 320 290.82)" id="FUu-myVBJcPJcbQ-X5lJm"  >
<path style="stroke: rgb(158,182,14); stroke-width: 0; stroke-dasharray: none; stroke-linecap: butt; stroke-dashoffset: 0; stroke-linejoin: miter; stroke-miterlimit: 4; fill: rgb(255,255,255); fill-rule: nonzero; opacity: 1;" vector-effect="non-scaling-stroke"  transform=" translate(-90.32, -90.32)" d="M 90.32473 0 C 140.18398000000002 0 180.64946 40.46548 180.64946 90.32473 C 180.64946 140.18398000000002 140.18398000000002 180.64946 90.32473 180.64946 C 40.46548 180.64946 0 140.18398000000002 0 90.32473 C 0 40.46548 40.46548 0 90.32473 0 z" stroke-linecap="round" />
</g>
</svg>