<?xml version="1.0" encoding="UTF-8" standalone="no" ?>
<!DOCTYPE svg PUBLIC "-//W3C//DTD SVG 1.1//EN" "http://www.w3.org/Graphics/SVG/1.1/DTD/svg11.dtd">
<svg xmlns="http://www.w3.org/2000/svg" xmlns:xlink="http://www.w3.org/1999/xlink" version="1.1" width="1500" height="500" viewBox="0 0 1500 500" xml:space="preserve">
<desc>Created with Fabric.js 4.6.0</desc>
<defs>
</defs>
<g transform="matrix(1 0 0 1 750 264.85)" id="zD8qjLe0_VyUhvAd71o28"  >
<path style="stroke: rgb(209,209,209); stroke-width: 0; stroke-dasharray: none; stroke-linecap: butt; stroke-dashoffset: 0; stroke-linejoin: miter; stroke-miterlimit: 4; fill: rgb(225,225,225); fill-rule: nonzero; opacity: 1;" vector-effect="non-scaling-stroke"  transform=" translate(0, 0)" d="M -607.98267 -158.26114 L -730.50742 119.41460000000001 L -708.8775400000001 158.26113 L 705.5435999999999 158.26113 L 730.5074199999999 123.16460000000001 L 730.5074199999999 -64.05327 L 712.6635299999999 -89.63651999999999 L 655.3217799999999 -89.13651999999999 L 635.8292099999999 -108.13738 L 635.8292099999999 -125.79693999999999 L 615.3993699999999 -150.8354 L 600.3993699999999 -150.8354 L 580.1361399999998 -125.79693999999999 L 580.1361399999998 -108.13738 L 562.4999999999999 -89.13651999999999 L 426.05197999999984 -89.63651999999999 L 390.7796999999998 -125.79693999999999 L 295.1732599999998 -125.79693999999999 L 261.7574199999998 -150.8354 L 245.0494999999998 -150.8354 L 196.78216999999978 -103.71672999999998 L 124.38117999999979 -103.71672999999998 L 81.68315999999979 -150.8354 L -107.6732800000002 -150.8354 L -189.35645000000022 -82.14728 L -271.96784000000025 -82.14728 L -295.17329000000024 -100.41873 L -295.17329000000024 -118.29693 L -311.83670000000023 -133.29693 L -326.83670000000023 -133.29693 L -347.93285000000026 -118.29693 L -369.43071000000026 -118.29693 L -429.60112000000026 -49.05326000000001 L -523.5148700000002 -49.05326000000001 L -565.2846700000002 -82.14727 L -565.2846700000002 -133.29693 L -590.3465500000002 -158.26113 z" stroke-linecap="round" />
</g>
<g transform="matrix(1 0 0 1 103.64 266.91)" id="bnafWBScS5FHdLjrdGGvl"  >
<path style="stroke: rgb(0,0,0); stroke-width: 15; stroke-dasharray: none; stroke-linecap: butt; stroke-dashoffset: 0; stroke-linejoin: miter; stroke-miterlimit: 4; fill: rgb(255,255,255); fill-opacity: 0; fill-rule: nonzero; opacity: 1;" vector-effect="non-scaling-stroke"  transform=" translate(0, 0)" d="M 58.64433 -127.85577 L -58.64432000000001 127.85577" stroke-linecap="round" />
</g>
<g transform="matrix(1 0 0 1 196.15 285.74)" id="XDwbd9BbRBi1BBCN8Kylj"  >
<path style="stroke: rgb(0,0,0); stroke-width: 15; stroke-dasharray: none; stroke-linecap: butt; stroke-dashoffset: 0; stroke-linejoin: miter; stroke-miterlimit: 4; fill: rgb(255,255,255); fill-opacity: 0; fill-rule: nonzero; opacity: 1;" vector-effect="non-scaling-stroke"  transform=" translate(0, 0)" d="M -50.56407 -110.02556 L 50.56407 110.02556" stroke-linecap="round" />
</g>
<g transform="matrix(1 0 0 1 366.12 204.58)" id="WK0uPkJQaEknvTgwD1HIf"  >
<path style="stroke: rgb(0,0,0); stroke-width: 15; stroke-dasharray: none; stroke-linecap: butt; stroke-dashoffset: 0; stroke-linejoin: miter; stroke-miterlimit: 4; fill: rgb(255,255,255); fill-opacity: 0; fill-rule: nonzero; opacity: 1;" vector-effect="non-scaling-stroke"  transform=" translate(0, 0)" d="M 28.44551 -32.64752 L -28.445520000000002 32.64752" stroke-linecap="round" />
</g>
<g transform="matrix(0.88 0 0 1 441.39 208.3)" id="Hs-2LnTsPPROVYBjHauY5"  >
<path style="stroke: rgb(0,0,0); stroke-width: 15; stroke-dasharray: none; stroke-linecap: butt; stroke-dashoffset: 0; stroke-linejoin: miter; stroke-miterlimit: 4; fill: rgb(255,255,255); fill-opacity: 0; fill-rule: nonzero; opacity: 1;" vector-effect="non-scaling-stroke"  transform=" translate(0, 0)" d="M -87.13942 0 L 87.13943 0" stroke-linecap="round" />
</g>
<g transform="matrix(1 0 0 1 430.66 267.29)" id="T3MuaGjbRjZ_R1s9CxyPs"  >
<path style="stroke: rgb(0,0,0); stroke-width: 15; stroke-dasharray: none; stroke-linecap: butt; stroke-dashoffset: 0; stroke-linejoin: miter; stroke-miterlimit: 4; fill: rgb(255,255,255); fill-opacity: 0; fill-rule: nonzero; opacity: 1;" vector-effect="non-scaling-stroke"  transform=" translate(0, 0)" d="M 0 -120.48077 L 0 120.48077" stroke-linecap="round" />
</g>
<g transform="matrix(1 0 0 1 428.06 388.02)" id="9KFfE-_DsjOifrpF96b6u"  >
<path style="stroke: rgb(0,0,0); stroke-width: 15; stroke-dasharray: none; stroke-linecap: butt; stroke-dashoffset: 0; stroke-linejoin: miter; stroke-miterlimit: 4; fill: rgb(255,255,255); fill-opacity: 0; fill-rule: nonzero; opacity: 1;" vector-effect="non-scaling-stroke"  transform=" translate(0, 0)" d="M -100.16026 0.25 L 100.16025000000002 -0.25" stroke-linecap="round" />
</g>
<g transform="matrix(1 0 0 1 430.66 294.27)" id="gO4NyUXsiBKn8k1jNH2T2"  >
<path style="stroke: rgb(0,0,0); stroke-width: 15; stroke-dasharray: none; stroke-linecap: butt; stroke-dashoffset: 0; stroke-linejoin: miter; stroke-miterlimit: 4; fill: rgb(255,255,255); fill-opacity: 0; fill-rule: nonzero; opacity: 1;" vector-effect="non-scaling-stroke"  transform=" translate(0, 0)" d="M -57.04167 0 L 57.04166 0" stroke-linecap="round" />
</g>
<g transform="matrix(1 0 0 1 730.04 139.05)" id="L_Kha2G_f1h0CrOPAQf60"  >
<path style="stroke: rgb(0,0,0); stroke-width: 15; stroke-dasharray: none; stroke-linecap: butt; stroke-dashoffset: 0; stroke-linejoin: miter; stroke-miterlimit: 4; fill: rgb(255,255,255); fill-opacity: 0; fill-rule: nonzero; opacity: 1;" vector-effect="non-scaling-stroke"  transform=" translate(0, 0)" d="M -89.34295 0 L 89.34295 0" stroke-linecap="round" />
</g>
<g transform="matrix(1 0 0 1 699.19 161.13)" id="Ld2e9ppKRabODRZqkNM9T"  >
<path style="stroke: rgb(0,0,0); stroke-width: 15; stroke-dasharray: none; stroke-linecap: butt; stroke-dashoffset: 0; stroke-linejoin: miter; stroke-miterlimit: 4; fill: rgb(255,255,255); fill-opacity: 0; fill-rule: nonzero; opacity: 1;" vector-effect="non-scaling-stroke"  transform=" translate(0, 0)" d="M 16.02564 -21.58021 L -16.02564 21.58021" stroke-linecap="round" />
</g>
<g transform="matrix(1 0 0 1 727.48 288.99)" id="UL0igmG0L-2f-q8wNo8GS"  >
<path style="stroke: rgb(0,0,0); stroke-width: 15; stroke-dasharray: none; stroke-linecap: butt; stroke-dashoffset: 0; stroke-linejoin: miter; stroke-miterlimit: 4; fill: rgb(255,255,255); fill-opacity: 0; fill-rule: nonzero; opacity: 1;" vector-effect="non-scaling-stroke"  transform=" translate(0, 0)" d="M -92.39744 105.77556 L -92.39744 -105.77556 L 92.39743 -105.77556 L 92.39743 91.02556 L 59.84615 61.993669999999995" stroke-linecap="round" />
</g>
<g transform="matrix(1 0 0 1 699.19 258.44)" id="Lxbpd4FF5aN1GsSA3qcLh"  >
<path style="stroke: rgb(0,0,0); stroke-width: 15; stroke-dasharray: none; stroke-linecap: butt; stroke-dashoffset: 0; stroke-linejoin: miter; stroke-miterlimit: 4; fill: rgb(255,255,255); fill-opacity: 0; fill-rule: nonzero; opacity: 1;" vector-effect="non-scaling-stroke"  transform=" translate(0, 0)" d="M 0 -75.72115 L 0 75.72116" stroke-linecap="round" />
</g>
<g transform="matrix(1 0 0 1 762.49 258.69)" id="iNj-VDRbTfSuRuO3Za__L"  >
<path style="stroke: rgb(0,0,0); stroke-width: 15; stroke-dasharray: none; stroke-linecap: butt; stroke-dashoffset: 0; stroke-linejoin: miter; stroke-miterlimit: 4; fill: rgb(255,255,255); fill-opacity: 0; fill-rule: nonzero; opacity: 1;" vector-effect="non-scaling-stroke"  transform=" translate(0, 0)" d="M 0 -75.97115 L 0 75.97116" stroke-linecap="round" />
</g>
<g transform="matrix(1 0 0 1 1055.76 263.16)" id="jUbRAjodFPBtNL73ZxSgy"  >
<path style="stroke: rgb(0,0,0); stroke-width: 15; stroke-dasharray: none; stroke-linecap: butt; stroke-dashoffset: 0; stroke-linejoin: miter; stroke-miterlimit: 4; fill: rgb(255,255,255); fill-opacity: 0; fill-rule: nonzero; opacity: 1;" vector-effect="non-scaling-stroke"  transform=" translate(0, 0)" d="M -44.87179 -124.10577 L -82.53205 -89.48381 L -82.53205 124.10577 L 82.53205 124.10577 L 82.53205 -89.48381 L -82.53205 -89.48381" stroke-linecap="round" />
</g>
<g transform="matrix(1 0 0 1 1035.88 238.58)" id="MA0CfRy3Ru8QzN6br3nZe"  >
<path style="stroke: rgb(0,0,0); stroke-width: 15; stroke-dasharray: none; stroke-linecap: butt; stroke-dashoffset: 0; stroke-linejoin: miter; stroke-miterlimit: 4; fill: rgb(255,255,255); fill-opacity: 0; fill-rule: nonzero; opacity: 1;" vector-effect="non-scaling-stroke"  transform=" translate(0, 0)" d="M -63.15064 0 L 63.15064 0" stroke-linecap="round" />
</g>
<g transform="matrix(1 0 0 1 1036.13 313.9)" id="UPxJj9InQUx_e4NeI06mq"  >
<path style="stroke: rgb(0,0,0); stroke-width: 15; stroke-dasharray: none; stroke-linecap: butt; stroke-dashoffset: 0; stroke-linejoin: miter; stroke-miterlimit: 4; fill: rgb(255,255,255); fill-opacity: 0; fill-rule: nonzero; opacity: 1;" vector-effect="non-scaling-stroke"  transform=" translate(0, 0)" d="M -63.40064 0 L 63.40064 0" stroke-linecap="round" />
</g>
<g transform="matrix(1 0 0 1 1357.9 299.55)" id="H766roITp1jOvIac2C64M"  >
<path style="stroke: rgb(0,0,0); stroke-width: 15; stroke-dasharray: none; stroke-linecap: butt; stroke-dashoffset: 0; stroke-linejoin: miter; stroke-miterlimit: 4; fill: rgb(255,255,255); fill-opacity: 0; fill-rule: nonzero; opacity: 1;" vector-effect="non-scaling-stroke"  transform=" translate(0, 0)" d="M -90.14423 88.21466 L -90.14423 -88.21466 L 90.14423 -88.21466 L 90.14423 87.96466 z" stroke-linecap="round" />
</g>
<g transform="matrix(1 0 0 1 1357.9 264.29)" id="zVtA1hxYLG0D21MR4vX6I"  >
<path style="stroke: rgb(0,0,0); stroke-width: 15; stroke-dasharray: none; stroke-linecap: butt; stroke-dashoffset: 0; stroke-linejoin: miter; stroke-miterlimit: 4; fill: rgb(255,255,255); fill-opacity: 0; fill-rule: nonzero; opacity: 1;" vector-effect="non-scaling-stroke"  transform=" translate(0, 0)" d="M 0 -123.98077 L 0 123.98077" stroke-linecap="round" />
</g>
<g transform="matrix(1 0 0 1 1338.42 299.55)" id="G1YtwPGjwQmmeG2xQz6eG"  >
<path style="stroke: rgb(0,0,0); stroke-width: 15; stroke-dasharray: none; stroke-linecap: butt; stroke-dashoffset: 0; stroke-linejoin: miter; stroke-miterlimit: 4; fill: rgb(255,255,255); fill-opacity: 0; fill-rule: nonzero; opacity: 1;" vector-effect="non-scaling-stroke"  transform=" translate(0, 0)" d="M -71.16346 0 L 71.16346 0" stroke-linecap="round" />
</g>
</svg>