<?xml version="1.0" encoding="UTF-8" standalone="no" ?>
<!DOCTYPE svg PUBLIC "-//W3C//DTD SVG 1.1//EN" "http://www.w3.org/Graphics/SVG/1.1/DTD/svg11.dtd">
<svg xmlns="http://www.w3.org/2000/svg" xmlns:xlink="http://www.w3.org/1999/xlink" version="1.1" width="640" height="640" viewBox="0 0 640 640" xml:space="preserve">
<desc>Created with Fabric.js 4.6.0</desc>
<defs>
</defs>
<g transform="matrix(1 0 0 1 340.49 373.97)" id="1REFoS2sCLZa5ttfub1Bc"  >
<path style="stroke: rgb(0,0,0); stroke-opacity: 0.2; stroke-width: 0; stroke-dasharray: none; stroke-linecap: butt; stroke-dashoffset: 0; stroke-linejoin: miter; stroke-miterlimit: 4; fill: rgb(20,183,44); fill-rule: nonzero; opacity: 1;" vector-effect="non-scaling-stroke"  transform=" translate(0, 0)" d="M -84.14141 -165.72335 L -253.67879999999997 161.14100999999997 L 208.62828000000002 165.72334999999995 L 253.67879000000002 98.01570999999996 L -147.26670999999996 100.04315999999996 L -41.36376999999996 -110.22613000000005 z" stroke-linecap="round" />
</g>
<g transform="matrix(1 0 0 1 263.99 310.33)" id="d1ZACuLjUaa_harTXnbr4"  >
<path style="stroke: rgb(0,0,0); stroke-opacity: 0.2; stroke-width: 0; stroke-dasharray: none; stroke-linecap: butt; stroke-dashoffset: 0; stroke-linejoin: miter; stroke-miterlimit: 4; fill: rgb(20,43,183); fill-rule: nonzero; opacity: 1;" vector-effect="non-scaling-stroke"  transform=" translate(0, 0)" d="M -180.73866 221.22514 L -225.55290000000002 150.96261 L -21.89339000000001 -221.22513999999998 L 225.55291 97.49284000000003 L 152.74464 97.49284000000003 L -8.14636999999999 -113.27644999999998 L -180.73864999999998 221.22514000000004" stroke-linecap="round" />
</g>
<g transform="matrix(1 0 0 1 397.77 279.53)" id="HNSPxrGyY45J6ZI4thaKS"  >
<path style="stroke: rgb(0,0,0); stroke-opacity: 0.2; stroke-width: 1; stroke-dasharray: none; stroke-linecap: butt; stroke-dashoffset: 0; stroke-linejoin: miter; stroke-miterlimit: 4; fill: rgb(183,20,20); fill-rule: nonzero; opacity: 1;" vector-effect="non-scaling-stroke"  transform=" translate(0, 0)" d="M -149.04873 -190.42621 L 100.94331 132.37411 L -167.88724000000002 132.37411 L -196.39957 190.42622 L 196.39955 188.38047 L -65.55290999999997 -190.42620999999997 z" stroke-linecap="round" />
</g>
</svg>