<?xml version="1.0" encoding="UTF-8" standalone="no" ?>
<!DOCTYPE svg PUBLIC "-//W3C//DTD SVG 1.1//EN" "http://www.w3.org/Graphics/SVG/1.1/DTD/svg11.dtd">
<svg xmlns="http://www.w3.org/2000/svg" xmlns:xlink="http://www.w3.org/1999/xlink" version="1.1" width="890" height="640" viewBox="0 0 256.32 184.32" xml:space="preserve">
<desc>Created with Fabric.js 4.6.0</desc>
<defs>
</defs>
<g transform="matrix(0.29 0 0 0.29 66.85 92.16)" id="Lves3Kzo2-5hnER-QLg_6"  >
<path style="stroke: rgb(0,0,0); stroke-width: 0; stroke-dasharray: none; stroke-linecap: round; stroke-dashoffset: 0; stroke-linejoin: miter; stroke-miterlimit: 4; fill: rgb(91,107,90); fill-rule: nonzero; opacity: 1;" vector-effect="non-scaling-stroke"  transform=" translate(-232.65, -322.04)" d="M 195.66 300.62 C 195.65 300.77 201.4 310.24 203.4 312.95 C 206.14 316.61 212.22 322.4 215.61 324.75 C 218.13 326.47 235.45 335.64 241.96 339.05 C 244.96 340.55 250.92 342.87 254.04 343.34 C 255.58 343.56 257.92 343.57 260.33 343.4 C 263.02 343.16 269.76 340 269.63 339.46 C 269.52 339.08 228.17 317.68 211.44 308.97 C 200.68 303.27 195.75 300.14 195.66 300.62 Z" stroke-linecap="round" />
</g>
<g transform="matrix(0.29 0 0 0.29 79.82 74.81)" id="J67YRET00Vo7TK0dqqKUW"  >
<path style="stroke: rgb(0,0,0); stroke-width: 0; stroke-dasharray: none; stroke-linecap: round; stroke-dashoffset: 0; stroke-linejoin: miter; stroke-miterlimit: 4; fill: rgb(89,142,87); fill-rule: nonzero; opacity: 1;" vector-effect="non-scaling-stroke"  transform=" translate(-277.15, -259.76)" d="M 220.25 310.5 C 221.21 310.24 291.73 247.71 319.35 222.98 C 323.92 218.9 334.97 209.05 335 209 C 335.03 208.94 289.47 229.41 278.03 235.03 C 268.22 240.08 253.94 248.41 248.84 252.99 C 245.61 255.93 235.16 266.69 231.56 271.74 C 229.74 274.34 226.47 280.35 225.36 283.58 C 224.29 286.78 220.83 299.63 219.7 305.18 C 219.02 308.66 219.22 310.7 220.25 310.5 Z" stroke-linecap="round" />
</g>
<g transform="matrix(0.29 0 0 0.29 110.6 55.39)" id="eSZqKYxSBEA1Rei4LLXfk"  >
<path style="stroke: rgb(0,0,0); stroke-width: 0; stroke-dasharray: none; stroke-linecap: round; stroke-dashoffset: 0; stroke-linejoin: miter; stroke-miterlimit: 4; fill: rgb(118,188,116); fill-rule: nonzero; opacity: 1;" vector-effect="non-scaling-stroke"  transform=" translate(0, 0)" d="M -202.0159 100.42868 C -201.90589999999997 100.53868 -167.6259 117.38868 -167.45589999999999 117.47868 C -165.5059 118.44868 -163.09589999999997 118.90868 -163.0459 117.47868 C -163.3259 113.85867999999999 -161.16771 108.01867999999999 -160.51771 104.83868 C -159.09771 98.50868 -156.96206999999998 93.44995 -155.29207 89.39994999999999 C -153.46206999999998 85.00994999999999 -149.0708 78.87431 -146.36079999999998 75.46430999999998 C -141.92079999999999 69.94430999999999 -132.06334999999999 60.23994999999998 -125.50334999999998 55.68994999999998 C -120.59334999999999 52.30994999999998 -111.10793999999999 45.91395999999998 -106.13793999999999 43.52395999999998 C -103.05793999999999 42.043959999999984 -65.09941999999998 24.05664999999998 -48.289419999999986 16.05664999999998 C -20.939419999999984 2.8166499999999797 46.28792000000002 -27.96005000000002 81.89792000000003 -45.380050000000026 C 112.48792000000003 -60.380050000000026 151.20410000000004 -81.87132000000003 162.35410000000002 -87.35132000000002 C 171.41410000000002 -91.80132000000002 172.86719000000002 -87.92132000000001 174.71719000000002 -87.35132000000002 C 174.73719000000003 -87.34132000000001 198.6741 -78.05132000000002 201.2341 -77.57132000000001 C 202.16410000000002 -77.44132000000002 202.7041 -77.59132000000001 202.8641 -78.02132000000002 C 203.22410000000002 -79.27132000000002 195.2341 -94.03132000000002 193.4541 -95.68132000000001 C 189.3641 -99.41132000000002 176.5841 -106.54132000000001 164.88410000000002 -112.59132000000001 C 159.1741 -115.49132000000002 154.40410000000003 -117.51132000000001 150.82410000000002 -118.27132 C 148.04410000000001 -118.80132 141.29410000000001 -117.41132 138.56410000000002 -116.05132 C 138.24410000000003 -115.89132000000001 63.50410000000002 -80.00132 32.564100000000025 -65.00132 C -4.255899999999976 -46.98132000000001 -71.13589999999998 -14.13132000000001 -101.19589999999997 0.698679999999996 C -113.16589999999997 6.668679999999996 -141.23589999999996 20.708679999999998 -150.28589999999997 25.798679999999997 C -161.16589999999997 32.168679999999995 -170.78589999999997 38.49867999999999 -175.24589999999998 42.388679999999994 C -177.17589999999998 44.08868 -181.71589999999998 48.65867999999999 -183.80589999999998 51.57867999999999 C -187.77589999999998 57.18867999999999 -196.11589999999998 75.91868 -196.8259 77.92867999999999 C -197.6859 80.39867999999998 -202.8759 97.87867999999999 -202.8759 98.13868 C -202.8559 99.06868 -202.5759 99.83868 -202.0159 100.42868 z" stroke-linecap="round" />
</g>
<g transform="matrix(0.29 0 0 0.29 110.11 91.29)" id="93aUYRSNBFdRJaUjNWir2"  >
<path style="stroke: rgb(0,0,0); stroke-width: 0; stroke-dasharray: none; stroke-linecap: round; stroke-dashoffset: 0; stroke-linejoin: miter; stroke-miterlimit: 4; fill: rgb(137,191,136); fill-rule: nonzero; opacity: 1;" vector-effect="non-scaling-stroke"  transform=" translate(0, 0)" d="M -48.20052 -107.79634 L -162.95 -5.483670000000004 L 47.52000000000001 107.79633 L 162.95000000000002 6.466329999999999 z" stroke-linecap="round" />
</g>
<g transform="matrix(0.29 0 0 0.29 158.84 60.93)" id="HQk8-ojk-hK-7jTEdR5Yy"  >
<path style="stroke: rgb(0,0,0); stroke-width: 0; stroke-dasharray: none; stroke-linecap: round; stroke-dashoffset: 0; stroke-linejoin: miter; stroke-miterlimit: 4; fill: rgb(75,186,72); fill-rule: nonzero; opacity: 1;" vector-effect="non-scaling-stroke"  transform=" translate(-551.53, -211.56)" d="M 335.3 208.86 L 545.56 323.16 L 767.77 214.22 L 558.52 99.97 L 335.3 208.86 Z" stroke-linecap="round" />
</g>
<g transform="matrix(0.29 0 0 0.29 156.81 55.71)" id="d8xb_sp3CoDjTGgbIca6y"  >
<path style="stroke: rgb(137,191,136); stroke-width: 0; stroke-dasharray: none; stroke-linecap: round; stroke-dashoffset: 0; stroke-linejoin: miter; stroke-miterlimit: 4; fill: rgb(137,191,136); fill-rule: nonzero; opacity: 1;" vector-effect="non-scaling-stroke"  transform=" translate(-544.48, -193.43)" d="M 436.51 262.58 C 442.28 265.81 455.62 273.36 460.2 275.16 C 467.92 278.15 481.92 281.26 488.41 282.48 C 495.4 283.65 513.56 286.14 519.02 286.59 C 526.19 287.16 546.01 287.54 552.66 287.22 C 560.42 286.77 576.32 285.27 584.48 284.24 C 592.77 283.01 608.88 280.12 616.3 278.51 C 625.54 276.26 638.77 272.32 645.66 269.28 C 654.69 265.26 662.78 259.33 672.33 251.66 C 679.57 245.74 689.72 235.76 691.4 233.01 C 692.94 230.39 694.61 223.49 694.55 220.29 C 694.34 213.67 691.94 198.9 689.73 191.43 C 687.13 182.74 680.49 169.28 676.4 162.81 C 671.98 155.83 661.68 142.86 656.47 137.74 C 651.69 133.07 639.14 123.37 632.97 119.6 C 626.6 115.74 613 109.72 605.6 107.71 C 596.25 105.21 561.6 101.1 546.85 99.76 C 539.51 99.09 526.91 99.96 518.18 101.58 C 510.91 103.08 494.51 107.06 486.07 109.22 C 478.54 111.32 463.61 115.83 455.98 119.3 C 449.85 122.12 439.08 129.95 432.95 135.74 C 427.79 140.72 416.84 152.74 412.61 158.6 C 408.02 165.01 402.17 177.55 399.82 185.85 C 396.98 196.27 394.88 206.59 394.44 214.05 C 394.27 217.18 394.62 223.99 395.52 227.28 C 396.58 230.98 399.59 237.15 402.21 240.13 C 405.99 244.37 415.92 250.7 426.8 256.85 C 430.09 258.77 435.46 261.97 436.51 262.58 Z" stroke-linecap="round" />
</g>
<g transform="matrix(0.29 0 0 0.29 128.72 64.74)" id="vSKqMsv3UGqfL4bk1Xncv"  >
<path style="stroke: rgb(82,176,79); stroke-width: 0; stroke-dasharray: none; stroke-linecap: round; stroke-dashoffset: 0; stroke-linejoin: miter; stroke-miterlimit: 4; fill: rgb(63,135,60); fill-rule: nonzero; opacity: 1;" vector-effect="non-scaling-stroke"  transform=" translate(-446.93, -224.8)" d="M 450.45 271.84 C 447.69 271.41 411.35 250.17 410.66 249.64 C 408.64 248.02 407.18 246.16 406.97 244.6 C 406.38 240.31 405.83 234.32 405.5 230.89 C 404.99 225.73 405.07 218.35 405.71 214.47 C 406.24 211.39 408.63 203.89 410.16 200.55 C 411.78 197.05 415.79 191.17 418 189.02 C 420.74 186.43 426.6 183.04 430.93 181.47 C 434.21 180.33 440.78 178.18 444.43 177.77 C 445.96 177.61 448.92 178.11 449.94 178.61 C 451.01 179.18 456.36 184.02 460.18 186.21 C 475.21 194.66 488.67 197.47 488.7 197.73 C 488.7 198.57 486.64 200.22 484.58 201.18 C 480.51 203.05 474.32 206.84 470.6 210.88 C 466.56 215.35 459.47 229.28 456.42 237.01 C 454.63 241.6 452.3 248.5 451.54 251.51 C 450.79 254.55 450.02 261.95 450.66 265.11 C 450.8 265.8 452.49 270.78 452.26 271.27 C 452.01 271.76 451.4 271.95 450.45 271.84 Z" stroke-linecap="round" />
</g>
<g transform="matrix(0.29 0 0 0.29 83.28 66.29)" id="APj2Vf1sfZFyw-0WZZ9iF"  >
<path style="stroke: rgb(112,160,110); stroke-width: 0; stroke-dasharray: none; stroke-linecap: round; stroke-dashoffset: 0; stroke-linejoin: miter; stroke-miterlimit: 4; fill: rgb(135,160,134); fill-rule: nonzero; opacity: 1;" vector-effect="non-scaling-stroke"  transform=" translate(-289.18, -230.18)" d="M 145.42 235.28 C 145.66 235.21 230.44 227 266.47 223.56 C 307.59 219.7 379.14 213.15 409.58 210.44 C 415.4 209.96 431.41 208.65 431.46 208.65 C 433.03 208.83 435.75 210.16 436.76 211.28 C 437.77 212.49 438.35 214.66 438.22 216.6 C 438.13 217.58 437.36 221.8 436.95 222.43 C 436.09 223.66 433.77 224.56 431.21 224.85 C 406.55 227.2 345.79 232.95 309.69 236.37 C 268.61 240.23 197.26 246.92 166.99 249.73 C 161.23 250.26 145.4 251.71 145.37 251.71 C 144.18 251.7 142.68 250.94 142.09 249.87 C 141.51 248.73 140.11 244.08 140.12 242.9 C 140.16 241.16 143.88 235.74 145.42 235.28 Z" stroke-linecap="round" />
</g>
<g transform="matrix(0.29 0 0 0.29 39.24 70.79)" id="I9AC88ijJjE5VZiAtEYLP"  >
<path style="stroke: rgb(89,158,87); stroke-width: 0; stroke-dasharray: none; stroke-linecap: round; stroke-dashoffset: 0; stroke-linejoin: miter; stroke-miterlimit: 4; fill: rgb(135,160,134); fill-rule: nonzero; opacity: 1;" vector-effect="non-scaling-stroke"  transform=" translate(-136.26, -245.8)" d="M 116.82 246.48 C 116.91 244.85 118.52 236.13 119.2 234.32 C 119.76 232.97 121.14 230.99 122.15 230.59 C 124.63 229.66 133.71 229.1 136.6 229.06 C 140.21 229.01 148.87 229.62 151.42 231.13 C 153.08 232.16 155.1 238.66 155.53 242.48 C 155.97 246.77 155.53 252.03 154.23 255.98 C 153.63 257.64 152.34 259.75 151.28 260.28 C 149.06 261.34 132.65 262.63 128.45 262.53 C 126.4 262.43 122.47 261.36 121.13 260.34 C 117.66 257.58 116.75 247.9 116.82 246.48 Z" stroke-linecap="round" />
</g>
<g transform="matrix(0.29 0 0 0.29 36.23 70.78)" id="p5wR_kQk3Yh1VDNlWZz2v"  >
<path style="stroke: rgb(36,111,34); stroke-width: 0; stroke-dasharray: none; stroke-linecap: round; stroke-dashoffset: 0; stroke-linejoin: round; stroke-miterlimit: 4; fill: rgb(36,111,34); fill-rule: nonzero; opacity: 1;" vector-effect="non-scaling-stroke"  transform=" translate(-125.81, -245.75)" d="M 125.81 234.62 C 127.58 234.67 129.88 239.55 130.32 242.93 C 130.65 245.75 129.88 251.95 129.13 253.62 C 128.43 255.07 126.71 256.85 125.81 256.88 C 124.05 256.83 121.74 251.95 121.3 248.57 C 120.98 245.75 121.74 239.55 122.5 237.88 C 123.2 236.43 124.92 234.65 125.81 234.62 Z" stroke-linecap="round" />
</g>
<g transform="matrix(0.29 0 0 0.29 183.24 109.36)" id="RXwWhYUa4_DKh1ot4Abop"  >
<path style="stroke: rgb(0,0,0); stroke-width: 0; stroke-dasharray: none; stroke-linecap: round; stroke-dashoffset: 0; stroke-linejoin: miter; stroke-miterlimit: 4; fill: rgb(91,107,90); fill-rule: nonzero; opacity: 1;" vector-effect="non-scaling-stroke"  transform=" translate(-636.83, -382.25)" d="M 441.21 432.19 C 441.2 432.41 446.37 442.64 448.45 445.85 C 450.79 449.45 455.77 454.97 458.17 456.98 C 463.72 461.53 478.79 469.47 486.31 473.13 C 490.24 474.97 497.5 478.31 500.82 479.82 C 505.8 482.02 511.62 484.05 514.52 484.21 C 518.46 484.35 532.58 477.6 535.04 476.45 C 559.89 464.7 618.79 436.76 652.84 420.57 C 689.58 402.94 754.15 371.52 781.98 357.75 C 792.47 352.34 807.09 344.84 807.5 344.55 C 810.64 342.27 815.9 335.9 817.38 332.58 C 820.72 324.86 824.8 310.72 826.99 303.91 C 830.27 293.34 832.76 280.58 832.42 280.38 C 831.3 279.81 827.55 281.77 823.11 283.95 C 801.03 294.79 749.24 320.21 719.53 334.78 C 682.3 353.03 609.64 388.62 574.21 405.97 C 546.43 419.54 502.82 440.82 487 448.53 C 485.88 449.08 479.88 452.07 478.49 451.7 C 478.04 451.56 459.05 441.46 450.65 437 C 445.12 434.01 441.28 431.65 441.21 432.19 Z" stroke-linecap="round" />
</g>
<g transform="matrix(0.29 0 0 0.29 182.69 95)" id="eAxu6q_JqNNwx3SKiG5ho"  >
<path style="stroke: rgb(0,0,0); stroke-width: 0; stroke-dasharray: none; stroke-linecap: round; stroke-dashoffset: 0; stroke-linejoin: miter; stroke-miterlimit: 4; fill: rgb(118,188,116); fill-rule: nonzero; opacity: 1;" vector-effect="non-scaling-stroke"  transform=" translate(0, 0)" d="M -204.50353 94.88516 C -204.81353000000001 93.96516 -204.64353 85.69516 -203.37353000000002 80.48516 C -203.17353000000003 79.67515999999999 -200.57353 72.30516 -198.70353000000003 67.55516 C -196.84353000000002 62.94516 -193.00353000000004 56.05516 -190.24353000000002 52.45516 C -186.37353000000002 47.46516 -174.93353000000002 37.74516 -168.51353000000003 33.42516 C -164.46353000000002 30.72516 -148.11353000000003 21.075159999999997 -141.00353000000004 17.265159999999998 C -131.49353000000005 12.505159999999998 -106.93353000000005 2.025159999999998 -97.52353000000005 -2.1548400000000036 C -64.30353000000005 -17.864840000000004 -1.3460800000000575 -48.6292 30.423919999999953 -64.17920000000001 C 48.03391999999995 -72.89920000000001 81.43518999999995 -91.71192 96.22518999999996 -99.01192 C 108.02518999999995 -104.82192 137.74518999999995 -118.94941 143.24518999999995 -120.38941 C 146.94518999999994 -121.29941 153.08645999999996 -118.97484 156.71645999999996 -117.39484 C 163.14645999999996 -114.51484 178.72645999999995 -105.65484000000001 185.80645999999996 -101.68484000000001 C 189.50645999999995 -99.56484 196.06645999999995 -95.08484000000001 197.73645999999997 -93.57484000000001 C 199.71645999999996 -91.73484 202.25645999999998 -88.67484 202.97645999999997 -87.11484000000002 C 203.86645999999996 -85.07484000000001 204.74645999999998 -76.97484000000001 204.62645999999998 -72.87484000000002 C 204.48646 -68.67484000000002 203.69645999999997 -60.27484000000002 203.27646 -56.384840000000025 C 203.04646 -54.174840000000025 202.42646 -52.94484000000003 201.14646 -52.314840000000025 C 186.83646 -45.72484000000003 132.74645999999998 -19.414840000000027 105.02645999999999 -5.9048400000000285 C 69.75645999999998 11.325159999999972 -2.943540000000013 46.84515999999997 -40.37354000000002 65.13515999999998 C -70.43354000000002 79.79515999999998 -122.98354000000002 105.35515999999998 -145.47354 116.27515999999999 C -147.75354000000002 117.37515999999998 -154.04354 120.50515999999999 -154.35354 120.56515999999999 C -155.83354 120.86515999999999 -159.41354 118.80515999999999 -164.37354000000002 116.19515999999999 C -172.29354 112.11515999999999 -188.16354 104.01515999999998 -196.11354000000003 99.99515999999998 C -201.02354000000003 97.55515999999999 -204.03354000000002 96.13515999999998 -204.50354000000004 94.88515999999998 z" stroke-linecap="round" />
</g>
<g transform="matrix(0.29 0 0 0.29 189.66 99)" id="L3mze2tWBLTQrbt4IfyyU"  >
<path style="stroke: rgb(0,0,0); stroke-width: 0; stroke-dasharray: none; stroke-linecap: round; stroke-dashoffset: 0; stroke-linejoin: miter; stroke-miterlimit: 4; fill: rgb(89,142,87); fill-rule: nonzero; opacity: 1;" vector-effect="non-scaling-stroke"  transform=" translate(-658.53, -343.76)" d="M 479 449.5 C 478.78 449.22 478.23 438.6 478.4 435.85 C 478.7 431.28 480.72 425.1 482.92 421.12 C 486.07 415.56 497.65 401.79 502.24 397.67 C 506.87 393.54 516.79 385.79 520.8 383.16 C 533.45 374.89 563.1 360.14 574.46 354.52 C 603.73 340.31 669.54 308.6 706.06 291.11 C 736.27 276.67 802.29 245.12 812.79 240.62 C 820.08 237.57 826.92 236.67 830.64 236.96 C 832.82 237.2 835.24 238.31 836.25 239.82 C 837.24 241.36 838.29 244.73 838.52 246.74 C 839.18 253.68 837.62 277.38 837.5 277.5 C 837.46 277.54 823.14 283.99 818.34 286.31 C 794.45 297.92 739.1 324.88 707.64 340.23 C 669.53 358.88 597.6 394.06 563.79 410.6 C 537.54 423.43 481.83 450.62 481.82 450.62 C 480.6 450.63 479.66 450.26 479 449.5 Z" stroke-linecap="round" />
</g>
<g transform="matrix(0.29 0 0 0.29 47.42 131.77)" id="F0nuX-HidBBw2kE2UIrl_"  >
<path style="stroke: rgb(0,0,0); stroke-width: 0; stroke-dasharray: none; stroke-linecap: round; stroke-dashoffset: 0; stroke-linejoin: miter; stroke-miterlimit: 4; fill: rgb(77,77,77); fill-rule: nonzero; opacity: 1;" vector-effect="non-scaling-stroke"  transform=" translate(0, 0)" d="M -28.20621 -59.54322 C -28.566209999999998 -58.96322 -23.286209999999997 19.446779999999997 -22.316209999999998 33.95678 C -21.91621 40.30678 -21.72621 44.52678 -20.75621 46.16678 C -20.13621 47.126780000000004 -17.11621 49.78678 -15.84621 50.52678 C -14.286209999999999 51.376780000000004 -11.386209999999998 51.78678 -9.776209999999999 51.41678 C -8.376209999999999 51.07678 -5.246209999999999 49.616780000000006 -5.076209999999999 49.73678 C -4.5062099999999985 50.156780000000005 -4.176209999999998 52.41678 -2.6662099999999986 54.24678 C -0.7462099999999987 56.57678 1.893790000000001 58.66678 3.933790000000001 59.35678 C 5.263790000000001 59.77678 8.593790000000002 59.56678 10.23379 59.11678 C 13.523790000000002 58.11678 19.40379 54.096779999999995 22.033790000000003 51.32678 C 23.27379 50.00678 25.203790000000005 47.56678 26.263790000000004 46.01678 C 27.173790000000004 44.60678 28.223790000000005 41.706779999999995 28.223790000000005 40.316779999999994 C 28.203790000000005 39.44678 26.923790000000004 36.36677999999999 26.433790000000005 35.60677999999999 C 25.383790000000005 34.14677999999999 23.413790000000006 32.93677999999999 21.933790000000005 33.276779999999995 C 20.843790000000006 33.53677999999999 15.253790000000006 36.11677999999999 14.793790000000005 36.07677999999999 C 14.413790000000004 36.026779999999995 15.213790000000005 29.746779999999994 15.003790000000006 0.7967799999999912 C 14.733790000000006 -18.09322000000001 14.203790000000005 -48.66322000000001 14.173790000000006 -48.683220000000006 C 13.643790000000006 -48.903220000000005 5.643790000000006 -45.113220000000005 2.9437900000000052 -44.64322000000001 C -0.3762099999999946 -44.12322 -6.596209999999994 -45.78322000000001 -11.086209999999994 -48.073220000000006 C -19.566209999999995 -52.48322 -27.706209999999995 -60.21322000000001 -28.206209999999995 -59.543220000000005 z" stroke-linecap="round" />
</g>
<g transform="matrix(0.29 0 0 0.29 44.63 104.51)" id="6hJBqvxRMQBnSAZ-C6j87"  >
<path style="stroke: rgb(0,0,0); stroke-width: 0; stroke-dasharray: none; stroke-linecap: round; stroke-dashoffset: 0; stroke-linejoin: miter; stroke-miterlimit: 4; fill: rgb(213,213,213); fill-rule: nonzero; opacity: 1;" vector-effect="non-scaling-stroke"  transform=" translate(-154.97, -362.88)" d="M 173.31 321.02 C 172.54 320.32 164.1 313.56 160.68 312.14 C 158.02 311.07 152.16 310.27 147 309.98 C 143.59 309.83 137.11 310.91 135.18 312.18 C 133.03 313.65 129.77 318.66 128.9 320.74 C 127.63 323.9 126.5 332.69 126.39 337.28 C 126.09 355.06 128.31 377.33 128.41 377.54 C 129.09 379.05 132.52 382.73 133.02 383.68 C 133.06 383.77 132.99 391.69 133.88 395.11 C 134.78 398.32 139.13 403.33 142.32 405.7 C 145.02 407.67 152.6 412.06 154.87 413.05 C 159.02 414.82 165.91 415.94 168.88 415.78 C 170.78 415.65 175.19 414.79 176.45 414.17 C 178.02 413.34 179.53 410.65 179.61 408.6 C 179.65 407.19 179.25 402.32 179.63 401.44 C 180.04 400.52 182.88 398.82 183.39 398.2 C 184.45 396.89 180.68 354.27 179.09 337.01 C 178.91 335.39 178.04 327.4 177.04 325.29 C 176.65 324.51 174.21 321.84 173.31 321.02 Z" stroke-linecap="round" />
</g>
<g transform="matrix(0.29 0 0 0.29 43.79 87)" id="wmfZfyXLbB-ncjK9js22T"  >
<path style="stroke: rgb(0,0,0); stroke-width: 0; stroke-dasharray: none; stroke-linecap: round; stroke-dashoffset: 0; stroke-linejoin: miter; stroke-miterlimit: 4; fill: rgb(0,0,0); fill-opacity: 0.89; fill-rule: nonzero; opacity: 1;" vector-effect="non-scaling-stroke"  transform=" translate(-152.05, -302.08)" d="M 160.03 323.02 C 157.42 323.57 141.88 320.4 140.86 319.49 C 139.78 318.47 138.35 315.21 138.04 313.48 C 137.47 309.75 137.26 302.79 137.51 298.74 C 137.8 294.7 140.1 286.86 142.17 284.3 C 143.28 283 145.78 281.49 147.34 281.17 C 150.08 280.69 157.12 282.18 159.85 283.82 C 161.37 284.78 163.6 286.81 164.38 288.09 C 165.97 290.79 166.82 297.8 166.67 302.92 C 166.45 309.15 166.05 313.94 165.38 316.88 C 165.05 318.15 163.91 320.89 163.15 321.58 C 162.37 322.23 161.33 322.72 160.03 323.02 Z" stroke-linecap="round" />
</g>
</svg>